<mxfile host="app.diagrams.net" modified="2022-05-03T11:43:56.531Z" agent="5.0 (Windows NT 10.0; Win64; x64) AppleWebKit/537.36 (KHTML, like Gecko) Chrome/101.0.4951.41 Safari/537.36 Edg/101.0.1210.32" etag="nvBANXkKaCtD3PCM7bXA" version="17.5.0" type="github">
  <diagram id="ld-OKjYLsXtMQDFQ4cW8" name="Page-1">
    <mxGraphModel dx="1038" dy="579" grid="1" gridSize="10" guides="1" tooltips="1" connect="1" arrows="1" fold="1" page="1" pageScale="1" pageWidth="850" pageHeight="1100" math="0" shadow="0">
      <root>
        <mxCell id="0" />
        <mxCell id="1" parent="0" />
        <mxCell id="THXKgEQ5xBHWhZPLi-k0-4" value="" style="edgeStyle=orthogonalEdgeStyle;rounded=0;orthogonalLoop=1;jettySize=auto;html=1;" edge="1" parent="1" source="THXKgEQ5xBHWhZPLi-k0-2" target="THXKgEQ5xBHWhZPLi-k0-3">
          <mxGeometry relative="1" as="geometry" />
        </mxCell>
        <mxCell id="THXKgEQ5xBHWhZPLi-k0-2" value="start" style="rounded=1;whiteSpace=wrap;html=1;" vertex="1" parent="1">
          <mxGeometry x="80" y="30" width="90" height="20" as="geometry" />
        </mxCell>
        <mxCell id="THXKgEQ5xBHWhZPLi-k0-6" value="" style="edgeStyle=orthogonalEdgeStyle;rounded=0;orthogonalLoop=1;jettySize=auto;html=1;" edge="1" parent="1" source="THXKgEQ5xBHWhZPLi-k0-3" target="THXKgEQ5xBHWhZPLi-k0-5">
          <mxGeometry relative="1" as="geometry" />
        </mxCell>
        <mxCell id="THXKgEQ5xBHWhZPLi-k0-3" value="WHILE truck hp &amp;lt; penalty hp" style="rhombus;whiteSpace=wrap;html=1;" vertex="1" parent="1">
          <mxGeometry x="85" y="100" width="80" height="80" as="geometry" />
        </mxCell>
        <mxCell id="THXKgEQ5xBHWhZPLi-k0-8" value="" style="edgeStyle=orthogonalEdgeStyle;rounded=0;orthogonalLoop=1;jettySize=auto;html=1;" edge="1" parent="1" source="THXKgEQ5xBHWhZPLi-k0-5" target="THXKgEQ5xBHWhZPLi-k0-7">
          <mxGeometry relative="1" as="geometry" />
        </mxCell>
        <mxCell id="THXKgEQ5xBHWhZPLi-k0-5" value="calculate the next&amp;nbsp; service time penalty&amp;nbsp;" style="whiteSpace=wrap;html=1;" vertex="1" parent="1">
          <mxGeometry x="65" y="230" width="120" height="60" as="geometry" />
        </mxCell>
        <mxCell id="THXKgEQ5xBHWhZPLi-k0-10" value="" style="edgeStyle=orthogonalEdgeStyle;rounded=0;orthogonalLoop=1;jettySize=auto;html=1;" edge="1" parent="1" source="THXKgEQ5xBHWhZPLi-k0-7" target="THXKgEQ5xBHWhZPLi-k0-9">
          <mxGeometry relative="1" as="geometry" />
        </mxCell>
        <mxCell id="THXKgEQ5xBHWhZPLi-k0-11" style="edgeStyle=orthogonalEdgeStyle;rounded=0;orthogonalLoop=1;jettySize=auto;html=1;entryX=1;entryY=0.5;entryDx=0;entryDy=0;" edge="1" parent="1" source="THXKgEQ5xBHWhZPLi-k0-7" target="THXKgEQ5xBHWhZPLi-k0-3">
          <mxGeometry relative="1" as="geometry">
            <Array as="points">
              <mxPoint x="125" y="400" />
              <mxPoint x="200" y="400" />
              <mxPoint x="200" y="140" />
            </Array>
          </mxGeometry>
        </mxCell>
        <mxCell id="THXKgEQ5xBHWhZPLi-k0-12" value="check next loop&amp;nbsp;&lt;br&gt;condition" style="edgeLabel;html=1;align=center;verticalAlign=middle;resizable=0;points=[];" vertex="1" connectable="0" parent="THXKgEQ5xBHWhZPLi-k0-11">
          <mxGeometry x="0.2585" y="-2" relative="1" as="geometry">
            <mxPoint y="-50" as="offset" />
          </mxGeometry>
        </mxCell>
        <mxCell id="THXKgEQ5xBHWhZPLi-k0-7" value="Increase the threshold count and calculate the service time" style="whiteSpace=wrap;html=1;" vertex="1" parent="1">
          <mxGeometry x="65" y="320" width="120" height="60" as="geometry" />
        </mxCell>
        <mxCell id="THXKgEQ5xBHWhZPLi-k0-9" value="end" style="ellipse;whiteSpace=wrap;html=1;" vertex="1" parent="1">
          <mxGeometry x="77.5" y="430" width="95" height="20" as="geometry" />
        </mxCell>
      </root>
    </mxGraphModel>
  </diagram>
</mxfile>
